<mxfile host="app.diagrams.net" modified="2021-11-09T17:18:20.173Z" agent="5.0 (Windows NT 10.0; Win64; x64) AppleWebKit/537.36 (KHTML, like Gecko) Chrome/95.0.4638.54 Safari/537.36" etag="Ph37E_fIKHVLtf5-c98x" version="15.7.1" type="github">
  <diagram id="ThVFui21h-BZNCbFm8Fo" name="Page-1">
    <mxGraphModel dx="849" dy="682" grid="1" gridSize="10" guides="1" tooltips="1" connect="1" arrows="1" fold="1" page="1" pageScale="1" pageWidth="827" pageHeight="1169" math="0" shadow="0">
      <root>
        <mxCell id="0" />
        <mxCell id="1" parent="0" />
        <mxCell id="7juRK5ru3YT_dS-g1AMM-1" value="Resrvation" style="shape=umlFrame;whiteSpace=wrap;html=1;" vertex="1" parent="1">
          <mxGeometry x="40" y="40" width="1000" height="460" as="geometry" />
        </mxCell>
      </root>
    </mxGraphModel>
  </diagram>
</mxfile>
